<svg width="268" height="156" xmlns="http://www.w3.org/2000/svg">
 <g>
  <title>Pear logo</title>
  <text style="cursor: move;" stroke-width="0" opacity="0.92" font-weight="bold" fill="#FFF" x="348.08207" y="265.30416" id="svg_logo" font-size="28" font-family="'Times New Roman'" text-anchor="start" xml:space="preserve" stroke="#000" transform="matrix(2.84881 0 0 2.57533 -881.695 -555.82)" font-style="italic">Pear</text>
  <g id="svg_1" stroke="null">
   <path id="svg_2" d="m44.12072,40.00512l-0.79777,2.00729c-10.10076,-4.0017 -15.22191,-11.33601 -15.22191,-21.80992l2.18743,0c0,9.59894 4.56786,16.13548 13.83225,19.80264l0,-0.00001z" fill="#404A3B" p-id="19631" stroke="null"/>
   <path id="svg_3" d="m22.03858,21.44718l12.89482,-6.8563l3.04456,5.72598l-12.89482,6.85629l-3.04456,-5.72598l0,0.00001z" fill="#C4D289" p-id="19632" stroke="null"/>
   <path id="svg_4" d="m24.81991,22.00389a0.38602,0.38602 0 0 0 -0.16727,0.52756l0.99077,1.86575a0.38602,0.38602 0 0 0 0.52756,0.15441l9.00705,-4.79947a0.38602,0.38602 0 0 0 0.15441,-0.52756l-0.96504,-1.86575a0.39888,0.39888 0 0 0 -0.52756,-0.15441l-9.01991,4.79947l-0.00001,0zm-0.84924,-1.58267l9.00705,-4.79947a2.17456,2.17456 0 0 1 2.95946,0.9007l0.99077,1.86574a2.18743,2.18743 0 0 1 -0.88784,2.95946l-9.00705,4.79947a2.20029,2.20029 0 0 1 -2.95946,-0.9007l-0.99077,-1.86575a2.18743,2.18743 0 0 1 0.88784,-2.95946l0,0.00001z" fill="#3C3E33" p-id="19633" stroke="null"/>
   <path id="svg_5" d="m33.15786,33.54578q-2.18743,-12.33965 6.74242,-18.33577t25.52854,-3.43555q-3.86016,16.25129 -12.86721,22.26027t-19.40375,-0.48895z" fill="#A0D289" p-id="19634" stroke="null"/>
   <path id="svg_6" d="m51.5837,32.54213c-5.14688,3.46128 -10.62832,3.46128 -16.72737,-0.10294c-1.11945,-7.15417 0.9007,-12.30105 6.03472,-15.74947s12.597,-4.64506 22.29887,-3.40981c-2.54771,9.43167 -6.4336,15.7752 -11.60622,19.26221l0,0.00001zm-18.42585,1.00364q10.52538,6.49794 19.42949,0.48895t12.86721,-22.26027q-16.65017,-2.58631 -25.55428,3.43555t-6.74242,18.33577z" fill="#404A3B" p-id="19635" stroke="null"/>
   <path id="svg_7" d="m24.15081,71.60698a41.29088,41.29088 0 0 0 -15.82667,36.28553c1.99442,22.76209 21.71985,34.74147 44.58488,32.74705s40.21003,-17.22919 38.21561,-39.99129a41.32948,41.32948 0 0 0 -23.32825,-33.67349a23.31538,23.31538 0 0 0 0.24448,-5.85458a22.82643,22.82643 0 1 0 -43.89005,10.48678l0,0zm-3.75723,-6.36927a25.00099,25.00099 0 1 1 49.78323,0.43749a43.50404,43.50404 0 0 1 23.16098,34.74147c2.02015,23.16098 -15.11897,40.17143 -40.21003,42.35885s-44.9323,-11.58049 -46.96531,-34.74147a43.50404,43.50404 0 0 1 15.44065,-37.13477a25.16826,25.16826 0 0 1 -1.20952,-5.6101l0,-0.05147z" fill="#33312B" p-id="19636" stroke="null"/>
   <path id="svg_8" d="m24.15081,71.60698a22.81356,22.81356 0 1 1 43.89005,-10.53824a23.31538,23.31538 0 0 1 -0.24448,5.85458a41.32948,41.32948 0 0 1 23.32825,33.72496c1.99442,22.76209 -15.35058,37.99687 -38.21561,39.99129s-42.60333,-9.98495 -44.58488,-32.74705a41.29088,41.29088 0 0 1 15.82667,-36.28553l0,0l0,-0.00001z" fill="#FFE692" p-id="19637" stroke="null"/>
   <path id="svg_9" d="m30.1598,99.78617a8.11921,8.11921 0 1 1 8.10634,-8.10634a8.10634,8.10634 0 0 1 -8.10634,8.10634zm43.74851,0a8.11921,8.11921 0 1 1 8.10634,-8.10634a8.10634,8.10634 0 0 1 -8.05487,8.10634l-0.05147,0z" fill="#FFB381" p-id="19638" stroke="null"/>
   <path id="svg_10" d="m43.10421,81.90075a1.59553,1.59553 0 0 1 1.59553,1.59553l0,1.59553a1.59553,1.59553 0 0 1 -3.1782,0l0,-1.55693a1.59553,1.59553 0 0 1 1.58267,-1.63414l0,0.00001zm19.48095,0a1.59553,1.59553 0 0 1 1.59553,1.59553l0,1.59553a1.59553,1.59553 0 0 1 -3.1782,0l0,-1.55693a1.59553,1.59553 0 0 1 1.58267,-1.63414l0,0.00001zm-8.62103,11.40035a4.32338,4.32338 0 0 1 -1.09371,2.88226a4.32338,4.32338 0 0 1 -1.09371,-2.88226l2.18743,0a2.14882,2.14882 0 0 0 4.29765,0l2.22603,0a4.33625,4.33625 0 0 1 -7.57879,2.88226a4.33625,4.33625 0 0 1 -7.57879,-2.88226l2.18743,0a2.14882,2.14882 0 0 0 4.29765,0l2.14882,0l-0.00001,0z" fill="#33312B" p-id="19639" stroke="null"/>
   <path id="svg_11" d="m35.8085,33.19836a1.09629,1.09629 0 1 1 -1.6856,-1.40253c0.29594,-0.34741 1.78854,-2.3161 2.23889,-2.86939a36.81309,36.81309 0 0 1 3.61569,-3.95023a28.50087,28.50087 0 0 1 12.27532,-6.84536a1.09371,1.09371 0 0 1 0.51469,2.11022a26.18477,26.18477 0 0 0 -11.29741,6.33067a35.14035,35.14035 0 0 0 -3.39694,3.71862c-0.42462,0.52756 -1.94295,2.50911 -2.26463,2.90799l-0.00001,0.00001z" fill="#404A3B" p-id="19640" stroke="null"/>
  </g>
 </g>
</svg>